<?xml version="1.0" encoding="UTF-8"?>
<!-- Generator: visioncortex VTracer 0.6.4 -->
<svg version="1.1" xmlns="http://www.w3.org/2000/svg" width="1024" height="1024">
<path d="M0 0 C8.85787538 5.31472523 11.68993393 16.08969535 14.25 25.5625 C14.54318115 26.63669189 14.8363623 27.71088379 15.13842773 28.81762695 C25.13855102 66.41527282 31.8426872 104.92650653 39.42285156 143.06640625 C53.20425189 218.32224779 53.20425189 218.32224779 89 285 C89.68578125 285.88945312 90.3715625 286.77890625 91.078125 287.6953125 C103.25506831 303.06979848 117.70141444 315.6446425 135 325 C136.13179687 325.61230469 137.26359375 326.22460938 138.4296875 326.85546875 C164.45117737 340.55964995 193.62421552 348.50052125 221.58414459 357.28275299 C223.67660565 357.94021375 225.76873612 358.59871662 227.86077881 359.25750732 C229.2706191 359.7013282 230.68047021 360.1451147 232.09033203 360.58886719 C232.79183632 360.80967327 233.49334061 361.03047935 234.2161026 361.25797653 C237.70733208 362.35584992 241.19982916 363.44935775 244.69525146 364.53381348 C270.64310626 372.58536873 270.64310626 372.58536873 282.02734375 377.234375 C282.76666641 377.52814026 283.50598907 377.82190552 284.26771545 378.12457275 C289.79379332 380.49110849 294.62795666 383.77166274 297.0625 389.5 C296.97223752 393.11049914 296.0062962 394.99055569 294 398 C289.7441723 401.95890949 285.12919478 403.8479007 279.7265625 405.84375 C279.02176254 406.10575195 278.31696259 406.36775391 277.59080505 406.63769531 C270.85715273 409.10809076 264.04062884 411.26056122 257.18164062 413.35198975 C236.28837246 419.74092489 215.60912612 426.75184309 195 434 C194.19081116 434.28441956 193.38162231 434.56883911 192.5479126 434.86187744 C160.02026857 446.32332673 131.55024056 459.17179759 106 483 C105.19820312 483.73605469 104.39640625 484.47210937 103.5703125 485.23046875 C87.90065213 500.17421834 76.42405839 519.18266264 68 539 C67.51015625 540.14855469 67.0203125 541.29710937 66.515625 542.48046875 C54.98230779 571.40677239 49.88903377 602.67411791 43.79156494 633.06182861 C42.97637499 637.12132845 42.1553427 641.17963631 41.33349609 645.23779297 C35.96394132 671.75887649 30.63112245 698.28686582 25.58203125 724.87109375 C25.44499598 725.59237709 25.3079607 726.31366043 25.16677284 727.05680084 C23.73630399 734.59046611 22.31545059 742.1258565 20.90649414 749.66357422 C12.80769418 792.84790048 12.80769418 792.84790048 6.0234375 798.70703125 C2.33567669 801.06349617 -0.83269212 801.2382261 -5.0625 800.375 C-12.84077832 796.73410377 -15.86372317 789.66484543 -19 782 C-20.5844169 776.32922787 -21.67337838 770.597583 -22.75 764.8125 C-23.07436213 763.13970341 -23.40058431 761.46726658 -23.72851562 759.79516602 C-24.25372423 757.1139292 -24.77713674 754.43242748 -25.29394531 751.7495575 C-26.71013469 744.40533952 -28.2097399 737.08021933 -29.734375 729.7578125 C-30.19828957 727.52238939 -30.66215697 725.28695649 -31.12597656 723.05151367 C-31.80977154 719.75718704 -32.49464368 716.46310851 -33.18347168 713.16983032 C-33.82588276 710.09222279 -34.46065768 707.01312975 -35.09375 703.93359375 C-35.38375885 702.55791733 -35.38375885 702.55791733 -35.67962646 701.15444946 C-36.59008981 696.69267519 -37.22949743 692.5828943 -37 688 C-37.66 687.67 -38.32 687.34 -39 687 C-39.45703125 684.95507812 -39.45703125 684.95507812 -39.8125 682.03125 C-41.3918401 670.76773918 -43.76085259 659.64742107 -46 648.5 C-46.36298691 646.69070007 -46.36298691 646.69070007 -46.73330688 644.84484863 C-56.34224184 595.41493911 -56.34224184 595.41493911 -70 547 C-70.39348633 545.8231665 -70.39348633 545.8231665 -70.79492188 544.62255859 C-77.72909913 524.29281165 -87.54281646 502.96226086 -103.23046875 487.8515625 C-105 486 -105 486 -105 484 C-105.66 484 -106.32 484 -107 484 C-108.34428074 482.34215053 -109.67561063 480.67378265 -111 479 C-140.74641152 452.14627031 -177.17111465 439.99121256 -214.625 427.875 C-216.97932045 427.10854512 -219.33348753 426.34161899 -221.6875 425.57421875 C-235.01557883 421.23491442 -248.36421172 416.9620939 -261.72424316 412.72235107 C-266.75948019 411.12410964 -271.79064471 409.51493312 -276.8125 407.875 C-277.78251953 407.56691406 -278.75253906 407.25882813 -279.75195312 406.94140625 C-294.21414226 402.1955427 -294.21414226 402.1955427 -299.125 396.5625 C-300.28356829 393.16955002 -300.13470641 391.40411924 -299 388 C-292.88893105 379.64820577 -280.38565004 376.95176871 -270.94140625 373.99609375 C-269.8112912 373.63613312 -268.68117615 373.27617249 -267.51681519 372.90530396 C-265.11016999 372.13934642 -262.70259372 371.37630905 -260.29415894 370.61599731 C-256.51244387 369.42169175 -252.73333231 368.21938667 -248.95532227 367.01342773 C-248.32603412 366.81255963 -247.69674597 366.61169153 -247.04838848 366.40473652 C-245.14943652 365.79850139 -243.25049949 365.1922195 -241.3515625 364.5859375 C-240.10525558 364.18868973 -238.85894867 363.79144196 -237.57487488 363.38215637 C-221.9966046 358.41314697 -206.47207158 353.2902876 -191 348 C-190.30944519 347.76408142 -189.61889038 347.52816284 -188.90740967 347.28509521 C-172.99940205 341.84159176 -157.1232593 336.40675756 -142 329 C-141.04432129 328.54343018 -141.04432129 328.54343018 -140.06933594 328.07763672 C-111.97056882 314.54251631 -92.19517642 292.36267776 -78 265 C-77.66403809 264.36465332 -77.32807617 263.72930664 -76.98193359 263.07470703 C-58.64949126 228.0276537 -51.79261302 186.40092803 -43.8125 148.0625 C-43.56808167 146.89172913 -43.32366333 145.72095825 -43.07183838 144.51470947 C-42.38079332 141.18957151 -41.69816567 137.86284707 -41.01953125 134.53515625 C-40.81386032 133.54132431 -40.60818939 132.54749237 -40.39628601 131.52354431 C-40.2111293 130.60319901 -40.0259726 129.6828537 -39.83520508 128.73461914 C-39.67296951 127.9368959 -39.51073395 127.13917267 -39.34358215 126.317276 C-38.97733218 123.84711778 -38.94094388 121.49356331 -39 119 C-38.34 119 -37.68 119 -37 119 C-36.94774702 118.38280531 -36.89549404 117.76561062 -36.84165764 117.12971306 C-36.31125603 111.32054088 -35.47082135 105.68491895 -34.28173828 99.97705078 C-34.11084686 99.13655182 -33.93995544 98.29605286 -33.7638855 97.43008423 C-33.20424677 94.68413527 -32.63745259 91.93972109 -32.0703125 89.1953125 C-31.67500032 87.26544518 -31.28005845 85.33550198 -30.88546753 83.40548706 C-30.05973473 79.37205421 -29.23064407 75.33933168 -28.39892578 71.30712891 C-27.33915276 66.16874312 -26.28606731 61.02901625 -25.23530769 55.88878059 C-24.42063679 51.905806 -23.60324336 47.92339407 -22.78496933 43.94115829 C-22.39605994 42.04768597 -22.0077734 40.15408559 -21.62015152 38.26034927 C-13.45298079 -1.59611636 -13.45298079 -1.59611636 0 0 Z " fill="#FEDE62" transform="translate(671,121)"/>
<path d="M0 0 C6.85679595 5.22422548 9.41862602 13.40307862 11.4140625 21.4765625 C11.62108795 22.28791656 11.8281134 23.09927063 12.04141235 23.93521118 C15.00180545 35.72779296 17.51044101 47.63487974 20.046875 59.52441406 C25.21805628 83.68916378 31.39524517 108.23397722 47 128 C47.58007812 128.75539063 48.16015625 129.51078125 48.7578125 130.2890625 C68.8447571 154.74638835 107.10646467 162.10749966 136.31054688 169.80688477 C149.85776758 173.4239179 149.85776758 173.4239179 154 179 C154.625 181.9375 154.625 181.9375 154 185 C149.99702227 188.85338962 146.46638507 190.91942204 141.1875 192.8125 C140.52532471 193.0511377 139.86314941 193.28977539 139.1809082 193.53564453 C132.39332691 195.94127337 125.53804163 198.15664051 118.6875 200.375 C117.58365967 200.73311768 116.47981934 201.09123535 115.3425293 201.46020508 C114.30523682 201.79044678 113.26794434 202.12068848 112.19921875 202.4609375 C110.80449341 202.90638916 110.80449341 202.90638916 109.3815918 203.36083984 C107 204 107 204 104 204 C103.67 204.66 103.34 205.32 103 206 C101.05078125 206.5703125 101.05078125 206.5703125 98.3125 207.125 C83.95343485 210.52990407 69.17280106 215.52049462 57 224 C56.14664063 224.58007812 55.29328125 225.16015625 54.4140625 225.7578125 C43.94168672 233.45903653 36.57141535 244.37687488 31 256 C30.26523437 257.49660156 30.26523437 257.49660156 29.515625 259.0234375 C26.36722239 265.85579575 24.09291666 272.72437232 22.1328125 279.97265625 C21.87420441 280.92570648 21.61559631 281.87875671 21.34915161 282.86068726 C18.15429197 294.87433281 15.72264925 307.04561438 13.24462891 319.22265625 C7.10860838 349.25261596 7.10860838 349.25261596 2 355 C-1.31186626 356.07995639 -3.23666203 356.24203399 -6.5625 355.1875 C-14.30892608 348.23557916 -15.77494288 336.71550191 -17.8807373 327.00463867 C-18.44661502 324.3954722 -19.02826277 321.7902641 -19.61425781 319.18554688 C-20.39305347 315.71971936 -21.16664692 312.25281231 -21.93505859 308.78466797 C-29.41296102 275.09946782 -37.20753461 241.88703605 -68 222 C-78.58031833 216.14616258 -89.41444151 211.78578827 -100.875 208 C-102.40248632 207.4856907 -103.92974547 206.97070624 -105.45678711 206.45507812 C-115.79838899 202.98108207 -126.19159011 199.67948876 -136.65380859 196.5859375 C-155.7950903 190.88687357 -155.7950903 190.88687357 -160 185 C-160.5625 181.9375 -160.5625 181.9375 -160 179 C-152.8659549 170.53582695 -139.4981341 168.55206178 -129.19372559 165.80682373 C-125.20931484 164.74260115 -121.23416586 163.64465097 -117.2578125 162.55078125 C-116.46624756 162.33357422 -115.67468262 162.11636719 -114.85913086 161.89257812 C-73.72717574 150.96555717 -73.72717574 150.96555717 -44.88525391 121.06201172 C-40.95137242 113.88805804 -37.46678394 106.72256043 -35.5703125 98.72265625 C-35.38210937 98.15417969 -35.19390625 97.58570313 -35 97 C-34.34 96.67 -33.68 96.34 -33 96 C-32.33313857 93.76554015 -31.79967597 91.58857118 -31.3125 89.3125 C-30.96674417 87.77069903 -30.62033548 86.22904439 -30.2734375 84.6875 C-29.97904785 83.36298828 -29.97904785 83.36298828 -29.67871094 82.01171875 C-28.90207846 78.56548196 -28.09744079 75.12642801 -27.2890625 71.6875 C-27.06173683 70.72036324 -27.06173683 70.72036324 -26.82981873 69.73368835 C-26.36583337 67.75993046 -25.90168437 65.7862111 -25.4375 63.8125 C-23.67713157 56.32597028 -21.94148696 48.83453706 -20.28515625 41.32421875 C-20.03773682 40.20490967 -19.79031738 39.08560059 -19.53540039 37.93237305 C-18.88025777 34.84098344 -18.88025777 34.84098344 -19 31 C-18.34 31 -17.68 31 -17 31 C-16.9175 29.989375 -16.835 28.97875 -16.75 27.9375 C-15.65409705 19.18593214 -13.45699977 9.63737146 -9 2 C-5.48175489 -0.34549674 -4.14224306 -0.57991403 0 0 Z " fill="#FEDE62" transform="translate(259,496)"/>
<path d="M0 0 C2 3 2 3 1.625 6.3125 C-0.09733832 11.31148195 -3.51931098 13.4965825 -8 16 C-10.4289973 17.01232816 -12.84072539 17.96659665 -15.30859375 18.87109375 C-16.01085587 19.13112183 -16.71311798 19.3911499 -17.43666077 19.65905762 C-24.16220968 22.11676823 -30.97074787 24.26403019 -37.81835938 26.35198975 C-58.71162754 32.74092489 -79.39087388 39.75184309 -100 47 C-100.80918884 47.28441956 -101.61837769 47.56883911 -102.4520874 47.86187744 C-134.97973143 59.32332673 -163.44975944 72.17179759 -189 96 C-189.80179688 96.73605469 -190.60359375 97.47210937 -191.4296875 98.23046875 C-207.09934787 113.17421834 -218.57594161 132.18266264 -227 152 C-227.48984375 153.14855469 -227.9796875 154.29710937 -228.484375 155.48046875 C-240.01769221 184.40677239 -245.11096623 215.67411791 -251.20843506 246.06182861 C-252.02362501 250.12132845 -252.8446573 254.17963631 -253.66650391 258.23779297 C-259.03605868 284.75887649 -264.36887755 311.28686582 -269.41796875 337.87109375 C-269.55500402 338.59237709 -269.6920393 339.31366043 -269.83322716 340.05680084 C-271.26369601 347.59046611 -272.68454941 355.1258565 -274.09350586 362.66357422 C-282.19230582 405.84790048 -282.19230582 405.84790048 -288.9765625 411.70703125 C-291.70306478 413.44925568 -293.77547882 413.80652873 -297 414 C-300.48647782 413.12838054 -302.4517852 412.5482148 -305 410 C-304.01 410 -303.02 410 -302 410 C-298.01570966 368.62397105 -295.33355882 327.14524455 -293.4375 285.625 C-292.43436731 263.69004468 -291.1325488 241.8537083 -289 220 C-288.76152749 217.42449687 -288.52324497 214.84897614 -288.28515625 212.2734375 C-284.52609091 172.73288095 -278.7956302 125.16078571 -253 93 C-251.95199219 91.6696875 -251.95199219 91.6696875 -250.8828125 90.3125 C-248.62904156 87.50503447 -246.32793973 84.74617975 -244 82 C-243.30132813 81.1646875 -242.60265625 80.329375 -241.8828125 79.46875 C-231.86562874 67.87376807 -220.35642339 59.35534796 -207 52 C-205.9378125 51.39542969 -204.875625 50.79085937 -203.78125 50.16796875 C-196.73148871 46.3778665 -189.52481224 43.67738561 -181.94140625 41.16796875 C-180.8859964 40.81852203 -179.83058655 40.46907532 -178.74319458 40.10903931 C-168.05518752 36.61976712 -157.27107145 33.63688319 -146.375 30.875 C-145.32960052 30.60775116 -144.28420105 30.34050232 -143.2071228 30.06515503 C-113.81765138 22.59873213 -84.02794966 16.88233476 -54.25150299 11.1996994 C-49.99890964 10.38711582 -45.74964597 9.55914897 -41.50225925 8.71978474 C-38.64698958 8.15722035 -35.79010537 7.60317185 -32.93286705 7.05070305 C-30.9749918 6.6695294 -29.01903434 6.27854451 -27.06318665 5.88710022 C-18.03489853 4.15540474 -9.16469912 3.38640973 0 3 C0 2.01 0 1.02 0 0 Z " fill="#F3CD51" transform="translate(966,508)"/>
<path d="M0 0 C3.00915164 0.55984217 5.27813701 1.144098 7.30297852 3.54492188 C10.60191987 8.82966631 12.58490989 14.01244004 14.25 20 C14.54390625 21.04244873 14.8378125 22.08489746 15.140625 23.15893555 C25.72685148 61.7242278 32.54677273 101.35879328 40.32470703 140.55957031 C54.11147785 216.08219775 54.11147785 216.08219775 90 283 C90.68578125 283.88945312 91.3715625 284.77890625 92.078125 285.6953125 C104.25506831 301.06979848 118.70141444 313.6446425 136 323 C137.13179687 323.61230469 138.26359375 324.22460938 139.4296875 324.85546875 C165.45117737 338.55964995 194.62421552 346.50052125 222.58414459 355.28275299 C224.67660565 355.94021375 226.76873612 356.59871662 228.86077881 357.25750732 C230.2706191 357.7013282 231.68047021 358.1451147 233.09033203 358.58886719 C233.79183632 358.80967327 234.49334061 359.03047935 235.2161026 359.25797653 C238.70733208 360.35584992 242.19982916 361.44935775 245.69525146 362.53381348 C271.65029064 370.58733004 271.65029064 370.58733004 283.15234375 375.359375 C283.90842422 375.66989807 284.6645047 375.98042114 285.4434967 376.300354 C289.3551036 377.99649816 292.22506113 379.74170206 295 383 C294.67 383.99 294.34 384.98 294 386 C284.32774494 386.29848545 274.79598846 385.40525975 265.1875 384.4375 C264.3343924 384.35274414 263.48128479 384.26798828 262.60232544 384.18066406 C240.61165149 381.96743463 218.80879785 378.54639639 197 375 C195.71641602 374.79342773 194.43283203 374.58685547 193.11035156 374.37402344 C180.82524028 372.38369815 168.68241294 369.92753113 156.5390625 367.20703125 C153.04313784 366.43022638 149.54721317 365.71266552 146.0234375 365.07421875 C110.00307809 358.5230839 68.09314765 345.12364114 46.08642578 313.64746094 C43.96453021 310.48698328 41.96835266 307.25770319 40 304 C39.64309082 303.42330566 39.28618164 302.84661133 38.91845703 302.25244141 C8.28333313 252.10523296 12.48734847 179.49905666 7.57417393 122.62461376 C7.08147776 116.9267863 6.5806216 111.22970978 6.07579041 105.53294373 C4.09027176 83.11983892 2.34762369 60.69417069 0.75 38.25 C0.66078278 37.00978088 0.57156555 35.76956177 0.47964478 34.49176025 C0.22674393 30.95834634 -0.02044388 27.42458208 -0.265625 23.890625 C-0.34039566 22.85003937 -0.41516632 21.80945374 -0.49220276 20.73733521 C-1.38819422 7.55785345 -1.38819422 7.55785345 -1 1 C-0.67 0.67 -0.34 0.34 0 0 Z " fill="#FEE980" transform="translate(670,123)"/>
<path d="M0 0 C3.5 0.6875 3.5 0.6875 5.58935547 2.83300781 C11.55100178 11.73967388 12.53472707 24.59307256 14.375 34.9375 C18.24813589 59.93902652 18.24813589 59.93902652 32.875 79.375 C41.4866039 84.17517181 51.43366325 86.24968673 60.96484375 88.41796875 C61.62669678 88.56909119 62.2885498 88.72021362 62.97045898 88.87591553 C66.31895724 89.63735071 69.67001589 90.38183269 73.02783203 91.10107422 C85.22530845 93.80655906 85.22530845 93.80655906 90.5 97.6875 C91.75 100.625 91.75 100.625 91.5 103.6875 C87.92865879 108.1159631 84.44755609 109.75776438 79.0625 111.0625 C78.3096875 111.26109619 77.556875 111.45969238 76.78125 111.66430664 C71.5466489 113.01545221 66.27580997 114.18727178 60.99609375 115.34765625 C59.66523067 115.64445855 58.33442046 115.94149801 57.00366211 116.23876953 C54.38428286 116.82368216 51.76363297 117.38100475 49.13500977 117.92529297 C40.14192912 119.90491302 32.56885416 122.50902536 26.03515625 129.21875 C24.41609328 131.82243396 23.11600141 134.35598506 21.9375 137.1875 C21.54433594 138.1053125 21.15117187 139.023125 20.74609375 139.96875 C16.6224229 152.2751282 14.82203392 165.38723582 12.55224609 178.14086914 C12.11597158 180.58376802 11.66822915 183.02434483 11.21875 185.46484375 C11.02641785 186.57121437 11.02641785 186.57121437 10.8302002 187.69993591 C9.84316024 192.99268199 8.49966671 197.68783329 4.625 201.5625 C1.94516639 202.98123544 0.49167841 203.21104372 -2.5 202.6875 C-8.01783668 198.95484578 -9.0962931 191.86495951 -10.33203125 185.69555664 C-11.39629143 180.13363072 -12.3849567 174.55792702 -13.37231445 168.98193359 C-17.34989536 144.17824206 -17.34989536 144.17824206 -31.83959961 124.5222168 C-41.29230217 118.00326114 -54.94087157 116.61992235 -66.02929688 114.1875 C-85.23480663 109.95269337 -85.23480663 109.95269337 -90.5 104.6875 C-90.9375 101.8125 -90.9375 101.8125 -90.5 98.6875 C-87.04397845 95.33849551 -84.00434684 93.96162865 -79.375 92.8125 C-78.75391357 92.65450928 -78.13282715 92.49651855 -77.49291992 92.33374023 C-72.9943811 91.21635613 -68.46646977 90.24446943 -63.93359375 89.27734375 C-62.7626416 89.0251709 -61.59168945 88.77299805 -60.38525391 88.51318359 C-58.05798671 88.01605108 -55.72828939 87.53012079 -53.39599609 87.05712891 C-42.91926884 84.83516354 -30.26160822 82.00881543 -24 72.4375 C-16.04120431 58.48594535 -14.23058472 41.03925813 -11.37231445 25.48730469 C-10.82102616 22.50744513 -10.25315304 19.53110023 -9.68359375 16.5546875 C-9.52306015 15.65152802 -9.36252655 14.74836853 -9.1971283 13.81784058 C-6.78882298 1.3335188 -6.78882298 1.3335188 0 0 Z " fill="#F4CF52" transform="translate(387.5,174.3125)"/>
<path d="M0 0 C0.33 0 0.66 0 1 0 C1.375 2.6875 1.375 2.6875 1 6 C-2.97897411 9.87725597 -6.53841567 11.92114365 -11.8125 13.8125 C-12.80576294 14.17045654 -12.80576294 14.17045654 -13.8190918 14.53564453 C-20.60667309 16.94127337 -27.46195837 19.15664051 -34.3125 21.375 C-35.41634033 21.73311768 -36.52018066 22.09123535 -37.6574707 22.46020508 C-39.21340942 22.95556763 -39.21340942 22.95556763 -40.80078125 23.4609375 C-41.73059814 23.75790527 -42.66041504 24.05487305 -43.6184082 24.36083984 C-46 25 -46 25 -49 25 C-49.33 25.66 -49.66 26.32 -50 27 C-51.94921875 27.5703125 -51.94921875 27.5703125 -54.6875 28.125 C-69.04656515 31.52990407 -83.82719894 36.52049462 -96 45 C-96.85335937 45.58007812 -97.70671875 46.16015625 -98.5859375 46.7578125 C-109.05831328 54.45903653 -116.42858465 65.37687488 -122 77 C-122.48984375 77.99773437 -122.9796875 78.99546875 -123.484375 80.0234375 C-126.63277761 86.85579575 -128.90708334 93.72437232 -130.8671875 100.97265625 C-131.12579559 101.92570648 -131.38440369 102.87875671 -131.65084839 103.86068726 C-134.84570803 115.87433281 -137.27735075 128.04561438 -139.75537109 140.22265625 C-145.89139162 170.25261596 -145.89139162 170.25261596 -151 176 C-154.74980806 177.2227635 -156.31607124 177.34196438 -159.875 175.5625 C-160.57625 175.046875 -161.2775 174.53125 -162 174 C-160.68 173.67 -159.36 173.34 -158 173 C-157.97129822 171.97588013 -157.94259644 170.95176025 -157.9130249 169.89660645 C-157.63718253 160.13200052 -157.34363891 150.36805696 -157.0337944 140.6044693 C-156.87513201 135.58775586 -156.72220491 130.57101888 -156.58349609 125.55371094 C-154.60387672 54.44471012 -154.60387672 54.44471012 -132.6875 33.5625 C-125.34628966 27.53537895 -116.70723492 24.11417081 -107.875 20.875 C-107.26205078 20.64538574 -106.64910156 20.41577148 -106.01757812 20.17919922 C-88.42099631 14.02039558 -69.34416741 11.85983374 -51.02868652 8.74273682 C-48.15682373 8.25237312 -45.28600676 7.75603522 -42.41517448 7.25967979 C-39.59618244 6.77303578 -36.77658005 6.2900044 -33.95679092 5.80800247 C-32.00716537 5.47420266 -30.05800054 5.13771529 -28.1088562 4.80111694 C-20.76227183 3.55566737 -13.42160303 2.4975832 -6.01701164 1.67363548 C-2.72188709 1.53735904 -2.72188709 1.53735904 0 0 Z " fill="#F3CD51" transform="translate(412,675)"/>
<path d="M0 0 C6.79980469 0.79785156 6.79980469 0.79785156 8.6015625 2.6171875 C11.07326597 8.07002951 12.81073509 13.5821859 14.3125 19.359375 C14.63403549 20.58909531 14.63403549 20.58909531 14.96206665 21.84365845 C16.66729201 28.47710029 18.18577454 35.14529211 19.6484375 41.8359375 C19.8718985 42.85763031 20.0953595 43.87932312 20.32559204 44.93197632 C21.23999322 49.12791402 22.15089344 53.32450052 23.046875 57.52441406 C28.21805628 81.68916378 34.39524517 106.23397722 50 126 C50.58007812 126.75539063 51.16015625 127.51078125 51.7578125 128.2890625 C71.8447571 152.74638835 110.10646467 160.10749966 139.31054688 167.80688477 C151.83821297 171.15170245 151.83821297 171.15170245 154.375 175.1875 C154.58125 175.785625 154.7875 176.38375 155 177 C139.22781639 177.3013793 123.70150992 176.48577372 108 175 C106.90429688 174.89816406 105.80859375 174.79632812 104.6796875 174.69140625 C74.80191348 171.83076831 41.95053624 167.53202987 21.22314453 143.53466797 C14.59414932 135.21732987 11.17726343 124.86979871 8.9453125 114.60546875 C8.77508575 113.82769577 8.60485901 113.04992279 8.42947388 112.24858093 C6.68969887 103.99185149 5.70823848 95.70184115 4.875 87.3125 C4.7079505 85.69270585 4.54087644 84.07291423 4.3737793 82.453125 C1.59179935 55.01030139 0.56993348 27.56300258 0 0 Z " fill="#FEE97F" transform="translate(256,498)"/>
<path d="M0 0 C-3.41084768 1.20469568 -6.82943733 2.38570092 -10.25 3.5625 C-11.70212891 4.07586914 -11.70212891 4.07586914 -13.18359375 4.59960938 C-14.58544922 5.07817383 -14.58544922 5.07817383 -16.015625 5.56640625 C-16.87446289 5.86490479 -17.73330078 6.16340332 -18.61816406 6.47094727 C-21.16586928 7.03684284 -22.56315454 6.85092276 -25 6 C-24.25234375 5.73445312 -23.5046875 5.46890625 -22.734375 5.1953125 C-21.74953125 4.84210937 -20.7646875 4.48890625 -19.75 4.125 C-18.77546875 3.77695312 -17.8009375 3.42890625 -16.796875 3.0703125 C-14.06785208 2.07910364 -14.06785208 2.07910364 -11.828125 0.91015625 C-7.81763153 -1.08652105 -4.21840499 -1.20915488 0 0 Z " fill="#EFC43E" transform="translate(944,529)"/>
<path d="M0 0 C3 1 3 1 3 1 Z " fill="#FADF67" transform="translate(416,488)"/>
<path d="M0 0 C3 1 3 1 3 1 Z " fill="#FBE165" transform="translate(441,480)"/>
<path d="" fill="#F8D85E" transform="translate(0,0)"/>
<path d="" fill="#F8DA5E" transform="translate(0,0)"/>
<path d="" fill="#FADB60" transform="translate(0,0)"/>
<path d="M0 0 C2 1 2 1 2 1 Z " fill="#FCE069" transform="translate(489,464)"/>
<path d="M0 0 C2 1 2 1 2 1 Z " fill="#EFCB52" transform="translate(341,294)"/>
<path d="M0 0 C2 1 2 1 2 1 Z " fill="#EFCE55" transform="translate(461,287)"/>
<path d="M0 0 C2 1 2 1 2 1 Z " fill="#E7C754" transform="translate(313,264)"/>
<path d="" fill="#5A4F19" transform="translate(0,0)"/>
<path d="" fill="#E2C452" transform="translate(0,0)"/>
<path d="" fill="#EED058" transform="translate(0,0)"/>
<path d="" fill="#EED159" transform="translate(0,0)"/>
<path d="" fill="#ECC851" transform="translate(0,0)"/>
<path d="" fill="#D3B94E" transform="translate(0,0)"/>
<path d="" fill="#D9BD4E" transform="translate(0,0)"/>
<path d="" fill="#EDD059" transform="translate(0,0)"/>
<path d="" fill="#EBC853" transform="translate(0,0)"/>
<path d="" fill="#F6D75E" transform="translate(0,0)"/>
<path d="" fill="#F4D75C" transform="translate(0,0)"/>
<path d="" fill="#F6D75D" transform="translate(0,0)"/>
<path d="" fill="#E8C752" transform="translate(0,0)"/>
<path d="" fill="#F6DA60" transform="translate(0,0)"/>
<path d="" fill="#EBC74D" transform="translate(0,0)"/>
<path d="" fill="#F8D861" transform="translate(0,0)"/>
<path d="" fill="#EECA4F" transform="translate(0,0)"/>
<path d="" fill="#E8C54C" transform="translate(0,0)"/>
<path d="" fill="#F7D75B" transform="translate(0,0)"/>
<path d="" fill="#FBDC61" transform="translate(0,0)"/>
<path d="" fill="#EFC84D" transform="translate(0,0)"/>
<path d="" fill="#FADB61" transform="translate(0,0)"/>
<path d="" fill="#EDCC50" transform="translate(0,0)"/>
<path d="" fill="#F9D85E" transform="translate(0,0)"/>
<path d="" fill="#EAC54E" transform="translate(0,0)"/>
<path d="" fill="#F6D75E" transform="translate(0,0)"/>
<path d="" fill="#EDCA51" transform="translate(0,0)"/>
<path d="" fill="#F8D85E" transform="translate(0,0)"/>
<path d="" fill="#F0CC4F" transform="translate(0,0)"/>
<path d="" fill="#E9C752" transform="translate(0,0)"/>
<path d="" fill="#E2C757" transform="translate(0,0)"/>
<path d="" fill="#FBDD66" transform="translate(0,0)"/>
<path d="" fill="#FADA5E" transform="translate(0,0)"/>
<path d="" fill="#E8C64E" transform="translate(0,0)"/>
<path d="" fill="#FBDC61" transform="translate(0,0)"/>
<path d="" fill="#E8C64C" transform="translate(0,0)"/>
<path d="" fill="#EBC94E" transform="translate(0,0)"/>
<path d="" fill="#EFCA4D" transform="translate(0,0)"/>
<path d="" fill="#F6DB65" transform="translate(0,0)"/>
<path d="" fill="#E5C84E" transform="translate(0,0)"/>
<path d="" fill="#FAE277" transform="translate(0,0)"/>
<path d="" fill="#EDD66D" transform="translate(0,0)"/>
<path d="" fill="#F8DF6A" transform="translate(0,0)"/>
<path d="" fill="#FAE575" transform="translate(0,0)"/>
<path d="" fill="#FDE775" transform="translate(0,0)"/>
<path d="" fill="#FAE879" transform="translate(0,0)"/>
<path d="" fill="#FCDE69" transform="translate(0,0)"/>
<path d="" fill="#FCE265" transform="translate(0,0)"/>
<path d="" fill="#FBDD64" transform="translate(0,0)"/>
<path d="" fill="#FDE674" transform="translate(0,0)"/>
<path d="" fill="#FFDD63" transform="translate(0,0)"/>
<path d="" fill="#FBDE62" transform="translate(0,0)"/>
<path d="" fill="#E8C851" transform="translate(0,0)"/>
<path d="" fill="#FBDD60" transform="translate(0,0)"/>
<path d="" fill="#ECC953" transform="translate(0,0)"/>
<path d="" fill="#FBDF64" transform="translate(0,0)"/>
<path d="" fill="#EECB51" transform="translate(0,0)"/>
<path d="" fill="#EFCD51" transform="translate(0,0)"/>
<path d="" fill="#EFCB54" transform="translate(0,0)"/>
<path d="" fill="#ECCB51" transform="translate(0,0)"/>
<path d="" fill="#E5C454" transform="translate(0,0)"/>
<path d="" fill="#E7C852" transform="translate(0,0)"/>
<path d="" fill="#EDCD56" transform="translate(0,0)"/>
<path d="" fill="#1D1A01" transform="translate(0,0)"/>
</svg>
